{
    "asset" : {
        "generator" : "Khronos glTF Blender I/O v3.2.43",
        "version" : "2.0"
    },
    "scene" : 0,
    "scenes" : [
        {
            "name" : "Scene",
            "nodes" : [
                2
            ]
        }
    ],
    "nodes" : [
        {
            "mesh" : 0,
            "name" : "Object_7",
            "scale" : [
                60,
                60,
                60
            ],
            "translation" : [
                0,
                0,
                10.1092529296875
            ]
        },
        {
            "children" : [
                0
            ],
            "name" : "Mac_Studio.obj.cleaner.materialmerger.gles"
        },
        {
            "children" : [
                1
            ],
            "name" : "Sketchfab_model",
            "rotation" : [
                -0.7071068286895752,
                0,
                0,
                0.7071067094802856
            ]
        }
    ],
    "materials" : [
        {
            "doubleSided" : true,
            "name" : "Plastic_-_Translucent_Matte_Gray",
            "pbrMetallicRoughness" : {
                "baseColorFactor" : [
                    0.01850022003054619,
                    0.01850022003054619,
                    0.01850022003054619,
                    1
                ],
                "metallicFactor" : 0,
                "roughnessFactor" : 0.8434915542602539
            }
        },
        {
            "doubleSided" : true,
            "name" : "Aluminum_-_Satin",
            "pbrMetallicRoughness" : {
                "baseColorTexture" : {
                    "index" : 0
                },
                "metallicFactor" : 0.6000000238418579,
                "roughnessFactor" : 0.4000000059604645
            }
        },
        {
            "doubleSided" : true,
            "name" : "Nickel_-_Polished",
            "pbrMetallicRoughness" : {
                "baseColorFactor" : [
                    0.5329208374023438,
                    0.2985505759716034,
                    0,
                    1
                ],
                "metallicFactor" : 0.800000011920929,
                "roughnessFactor" : 0.4000000059604645
            }
        },
        {
            "doubleSided" : true,
            "name" : "Nickel_-_Satin",
            "pbrMetallicRoughness" : {
                "baseColorFactor" : [
                    0.2462013214826584,
                    0.2462013214826584,
                    0.2462013214826584,
                    1
                ],
                "metallicFactor" : 0.6000000238418579,
                "roughnessFactor" : 0.4000000059604645
            }
        },
        {
            "doubleSided" : true,
            "name" : "Steel_-_Satin_bottom.jpg",
            "pbrMetallicRoughness" : {
                "baseColorTexture" : {
                    "index" : 1
                },
                "metallicFactor" : 0.5,
                "roughnessFactor" : 0.5
            }
        },
        {
            "doubleSided" : true,
            "name" : "Chrome",
            "pbrMetallicRoughness" : {
                "baseColorFactor" : [
                    0.2462013214826584,
                    0.2462013214826584,
                    0.2462013214826584,
                    1
                ],
                "metallicFactor" : 0,
                "roughnessFactor" : 0.20000000298023224
            }
        },
        {
            "doubleSided" : true,
            "name" : "Glass_-_Heavy_Color",
            "pbrMetallicRoughness" : {
                "baseColorFactor" : [
                    0,
                    0,
                    0,
                    1
                ],
                "metallicFactor" : 0,
                "roughnessFactor" : 0.10000000149011612
            }
        },
        {
            "doubleSided" : true,
            "name" : "Steel_-_Satin",
            "pbrMetallicRoughness" : {
                "baseColorFactor" : [
                    0,
                    0,
                    0,
                    1
                ],
                "metallicFactor" : 0,
                "roughnessFactor" : 0.8434915542602539
            }
        }
    ],
    "meshes" : [
        {
            "name" : "Object_5.001",
            "primitives" : [
                {
                    "attributes" : {
                        "POSITION" : 0,
                        "NORMAL" : 1,
                        "TEXCOORD_0" : 2
                    },
                    "indices" : 3,
                    "material" : 0
                },
                {
                    "attributes" : {
                        "POSITION" : 4,
                        "NORMAL" : 5,
                        "TEXCOORD_0" : 6
                    },
                    "indices" : 7,
                    "material" : 1
                },
                {
                    "attributes" : {
                        "POSITION" : 8,
                        "NORMAL" : 9,
                        "TEXCOORD_0" : 10
                    },
                    "indices" : 11,
                    "material" : 2
                },
                {
                    "attributes" : {
                        "POSITION" : 12,
                        "NORMAL" : 13,
                        "TEXCOORD_0" : 14
                    },
                    "indices" : 15,
                    "material" : 3
                },
                {
                    "attributes" : {
                        "POSITION" : 16,
                        "NORMAL" : 17,
                        "TEXCOORD_0" : 18
                    },
                    "indices" : 19,
                    "material" : 4
                },
                {
                    "attributes" : {
                        "POSITION" : 20,
                        "NORMAL" : 21,
                        "TEXCOORD_0" : 22
                    },
                    "indices" : 23,
                    "material" : 5
                },
                {
                    "attributes" : {
                        "POSITION" : 24,
                        "NORMAL" : 25,
                        "TEXCOORD_0" : 26
                    },
                    "indices" : 27,
                    "material" : 6
                },
                {
                    "attributes" : {
                        "POSITION" : 28,
                        "NORMAL" : 29,
                        "TEXCOORD_0" : 30
                    },
                    "indices" : 31,
                    "material" : 7
                }
            ]
        }
    ],
    "textures" : [
        {
            "sampler" : 0,
            "source" : 0
        },
        {
            "sampler" : 0,
            "source" : 1
        }
    ],
    "images" : [
        {
            "bufferView" : 8,
            "mimeType" : "image/jpeg",
            "name" : "Aluminum_-_Satin_baseColor.jpeg",
            "uri" : "../../../New%20folder/textures/Aluminum_-_Satin_baseColor.jpeg"
        },
        {
            "bufferView" : 21,
            "mimeType" : "image/jpeg",
            "name" : "Steel_-_Satin_bottom.jpg_baseColor.jpeg",
            "uri" : "../../../New%20folder/textures/Steel_-_Satin_bottom.jpg_baseColor.jpeg"
        }
    ],
    "accessors" : [
        {
            "bufferView" : 0,
            "componentType" : 5126,
            "count" : 5524,
            "max" : [
                0.9578989744186401,
                0.9779009819030762,
                0.47842198610305786
            ],
            "min" : [
                -0.9579039812088013,
                -0.9579020142555237,
                -0.5084220170974731
            ],
            "type" : "VEC3"
        },
        {
            "bufferView" : 1,
            "componentType" : 5126,
            "count" : 5524,
            "type" : "VEC3"
        },
        {
            "bufferView" : 2,
            "componentType" : 5126,
            "count" : 5524,
            "type" : "VEC2"
        },
        {
            "bufferView" : 3,
            "componentType" : 5123,
            "count" : 9450,
            "type" : "SCALAR"
        },
        {
            "bufferView" : 4,
            "componentType" : 5126,
            "count" : 5698,
            "max" : [
                0.9778990149497986,
                0.9779009819030762,
                0.4984219968318939
            ],
            "min" : [
                -0.9779040217399597,
                -0.9779019951820374,
                -0.41788598895072937
            ],
            "type" : "VEC3"
        },
        {
            "bufferView" : 5,
            "componentType" : 5126,
            "count" : 5698,
            "type" : "VEC3"
        },
        {
            "bufferView" : 6,
            "componentType" : 5126,
            "count" : 5698,
            "type" : "VEC2"
        },
        {
            "bufferView" : 7,
            "componentType" : 5123,
            "count" : 11418,
            "type" : "SCALAR"
        },
        {
            "bufferView" : 9,
            "componentType" : 5126,
            "count" : 456,
            "max" : [
                -0.4566290080547333,
                0.9779009819030762,
                -0.24589799344539642
            ],
            "min" : [
                -0.5517460107803345,
                0.8978999853134155,
                -0.25725701451301575
            ],
            "type" : "VEC3"
        },
        {
            "bufferView" : 10,
            "componentType" : 5126,
            "count" : 456,
            "type" : "VEC3"
        },
        {
            "bufferView" : 11,
            "componentType" : 5126,
            "count" : 456,
            "type" : "VEC2"
        },
        {
            "bufferView" : 12,
            "componentType" : 5123,
            "count" : 684,
            "type" : "SCALAR"
        },
        {
            "bufferView" : 13,
            "componentType" : 5126,
            "count" : 304,
            "max" : [
                0.28159600496292114,
                0.9779009819030762,
                -0.193121999502182
            ],
            "min" : [
                -0.5584930181503296,
                0.8360000252723694,
                -0.30777400732040405
            ],
            "type" : "VEC3"
        },
        {
            "bufferView" : 14,
            "componentType" : 5126,
            "count" : 304,
            "type" : "VEC3"
        },
        {
            "bufferView" : 15,
            "componentType" : 5126,
            "count" : 304,
            "type" : "VEC2"
        },
        {
            "bufferView" : 16,
            "componentType" : 5123,
            "count" : 420,
            "type" : "SCALAR"
        },
        {
            "bufferView" : 17,
            "componentType" : 5126,
            "count" : 8224,
            "max" : [
                0.9578989744186401,
                0.9579010009765625,
                -0.3778879940509796
            ],
            "min" : [
                -0.9579039812088013,
                -0.9579020142555237,
                -0.4984219968318939
            ],
            "type" : "VEC3"
        },
        {
            "bufferView" : 18,
            "componentType" : 5126,
            "count" : 8224,
            "type" : "VEC3"
        },
        {
            "bufferView" : 19,
            "componentType" : 5126,
            "count" : 8224,
            "type" : "VEC2"
        },
        {
            "bufferView" : 20,
            "componentType" : 5123,
            "count" : 13614,
            "type" : "SCALAR"
        },
        {
            "bufferView" : 22,
            "componentType" : 5126,
            "count" : 1109,
            "max" : [
                0.6781169772148132,
                0.9779009819030762,
                -0.20352399349212646
            ],
            "min" : [
                -0.6592100262641907,
                -0.9579020142555237,
                -0.2996169924736023
            ],
            "type" : "VEC3"
        },
        {
            "bufferView" : 23,
            "componentType" : 5126,
            "count" : 1109,
            "type" : "VEC3"
        },
        {
            "bufferView" : 24,
            "componentType" : 5126,
            "count" : 1109,
            "type" : "VEC2"
        },
        {
            "bufferView" : 25,
            "componentType" : 5123,
            "count" : 3888,
            "type" : "SCALAR"
        },
        {
            "bufferView" : 26,
            "componentType" : 5126,
            "count" : 1658,
            "max" : [
                0.25317099690437317,
                0.951807975769043,
                0.4984219968318939
            ],
            "min" : [
                -0.8319540023803711,
                -0.2516689896583557,
                -0.274616003036499
            ],
            "type" : "VEC3"
        },
        {
            "bufferView" : 27,
            "componentType" : 5126,
            "count" : 1658,
            "type" : "VEC3"
        },
        {
            "bufferView" : 28,
            "componentType" : 5126,
            "count" : 1658,
            "type" : "VEC2"
        },
        {
            "bufferView" : 29,
            "componentType" : 5123,
            "count" : 3504,
            "type" : "SCALAR"
        },
        {
            "bufferView" : 30,
            "componentType" : 5126,
            "count" : 246,
            "max" : [
                -0.7107899785041809,
                -0.7118930220603943,
                -0.3978919982910156
            ],
            "min" : [
                -0.7701280117034912,
                -0.771236002445221,
                -0.4178920090198517
            ],
            "type" : "VEC3"
        },
        {
            "bufferView" : 31,
            "componentType" : 5126,
            "count" : 246,
            "type" : "VEC3"
        },
        {
            "bufferView" : 32,
            "componentType" : 5126,
            "count" : 246,
            "type" : "VEC2"
        },
        {
            "bufferView" : 33,
            "componentType" : 5123,
            "count" : 396,
            "type" : "SCALAR"
        }
    ],
    "bufferViews" : [
        {
            "buffer" : 0,
            "byteLength" : 66288,
            "byteOffset" : 0
        },
        {
            "buffer" : 0,
            "byteLength" : 66288,
            "byteOffset" : 66288
        },
        {
            "buffer" : 0,
            "byteLength" : 44192,
            "byteOffset" : 132576
        },
        {
            "buffer" : 0,
            "byteLength" : 18900,
            "byteOffset" : 176768
        },
        {
            "buffer" : 0,
            "byteLength" : 68376,
            "byteOffset" : 195668
        },
        {
            "buffer" : 0,
            "byteLength" : 68376,
            "byteOffset" : 264044
        },
        {
            "buffer" : 0,
            "byteLength" : 45584,
            "byteOffset" : 332420
        },
        {
            "buffer" : 0,
            "byteLength" : 22836,
            "byteOffset" : 378004
        },
        {
            "buffer" : 0,
            "byteLength" : 645,
            "byteOffset" : 400840
        },
        {
            "buffer" : 0,
            "byteLength" : 5472,
            "byteOffset" : 401488
        },
        {
            "buffer" : 0,
            "byteLength" : 5472,
            "byteOffset" : 406960
        },
        {
            "buffer" : 0,
            "byteLength" : 3648,
            "byteOffset" : 412432
        },
        {
            "buffer" : 0,
            "byteLength" : 1368,
            "byteOffset" : 416080
        },
        {
            "buffer" : 0,
            "byteLength" : 3648,
            "byteOffset" : 417448
        },
        {
            "buffer" : 0,
            "byteLength" : 3648,
            "byteOffset" : 421096
        },
        {
            "buffer" : 0,
            "byteLength" : 2432,
            "byteOffset" : 424744
        },
        {
            "buffer" : 0,
            "byteLength" : 840,
            "byteOffset" : 427176
        },
        {
            "buffer" : 0,
            "byteLength" : 98688,
            "byteOffset" : 428016
        },
        {
            "buffer" : 0,
            "byteLength" : 98688,
            "byteOffset" : 526704
        },
        {
            "buffer" : 0,
            "byteLength" : 65792,
            "byteOffset" : 625392
        },
        {
            "buffer" : 0,
            "byteLength" : 27228,
            "byteOffset" : 691184
        },
        {
            "buffer" : 0,
            "byteLength" : 645,
            "byteOffset" : 718412
        },
        {
            "buffer" : 0,
            "byteLength" : 13308,
            "byteOffset" : 719060
        },
        {
            "buffer" : 0,
            "byteLength" : 13308,
            "byteOffset" : 732368
        },
        {
            "buffer" : 0,
            "byteLength" : 8872,
            "byteOffset" : 745676
        },
        {
            "buffer" : 0,
            "byteLength" : 7776,
            "byteOffset" : 754548
        },
        {
            "buffer" : 0,
            "byteLength" : 19896,
            "byteOffset" : 762324
        },
        {
            "buffer" : 0,
            "byteLength" : 19896,
            "byteOffset" : 782220
        },
        {
            "buffer" : 0,
            "byteLength" : 13264,
            "byteOffset" : 802116
        },
        {
            "buffer" : 0,
            "byteLength" : 7008,
            "byteOffset" : 815380
        },
        {
            "buffer" : 0,
            "byteLength" : 2952,
            "byteOffset" : 822388
        },
        {
            "buffer" : 0,
            "byteLength" : 2952,
            "byteOffset" : 825340
        },
        {
            "buffer" : 0,
            "byteLength" : 1968,
            "byteOffset" : 828292
        },
        {
            "buffer" : 0,
            "byteLength" : 792,
            "byteOffset" : 830260
        }
    ],
    "samplers" : [
        {
            "magFilter" : 9729,
            "minFilter" : 9987
        }
    ],
    "buffers" : [
        {
            "byteLength" : 831052,
            "uri" : "data:application/octet-stream;base64,"
        }
    ]
}
